<svg width="32" height="32" viewBox="0 0 100 100" fill="none" xmlns="http://www.w3.org/2000/svg">
  <!-- Purple background circle -->
  <rect width="100" height="100" rx="20" fill="#2D1140"/>
  <!-- House outline in purple -->
  <path d="M50 8 L92 42 L92 88 L62 88 L62 68 L38 68 L38 88 L8 88 L8 42 Z" fill="none" stroke="#6B2D8B" stroke-width="6" stroke-linejoin="round" stroke-linecap="round"/>
  <!-- Flame (orange) -->
  <path d="M36 72 C36 72 28 64 30 54 C30 54 33 60 36 58 C36 58 33 50 38 44 C38 44 38 52 42 54 C42 54 46 48 44 40 C44 40 52 50 50 60 C50 60 54 56 52 50 C52 50 58 58 54 68 C54 68 52 72 44 74 C36 76 32 72 36 72 Z" fill="#E8A030"/>
  <!-- Water drop (blue) -->
  <path d="M66 44 C66 44 58 56 58 63 C58 67.4 61.6 71 66 71 C70.4 71 74 67.4 74 63 C74 56 66 44 66 44 Z" fill="#5B8EC9"/>
</svg>
